<?xml version="1.0" encoding="UTF-8" standalone="no"?><!-- Generator: Gravit.io --><svg xmlns="http://www.w3.org/2000/svg" xmlns:xlink="http://www.w3.org/1999/xlink" style="isolation:isolate" viewBox="0 0 200 200" width="200pt" height="200pt"><path d=" M 100 0 C 44.758 0 0 44.758 0 100 C 0 155.242 44.758 200 100 200 C 155.242 200 200 155.242 200 100 C 200 44.758 155.242 0 100 0 Z  M 100 16.667 C 146.025 16.667 183.333 53.975 183.333 100 C 183.333 146.025 146.025 183.333 100 183.333 C 53.975 183.333 16.667 146.025 16.667 100 C 16.667 53.975 53.975 16.667 100 16.667 Z  M 91.142 32.292 L 87.5 100.525 L 88.283 107.808 L 139.583 153.125 L 147.658 144.792 L 105.208 99.742 L 101.558 32.292 L 91.142 32.292 Z " fill="rgb(0,0,0)"/></svg>